<?xml version="1.0" encoding="utf-8"?>
<!-- Generator: Adobe Illustrator 16.0.0, SVG Export Plug-In . SVG Version: 6.00 Build 0)  -->
<!DOCTYPE svg PUBLIC "-//W3C//DTD SVG 1.1//EN" "http://www.w3.org/Graphics/SVG/1.1/DTD/svg11.dtd">
<svg version="1.1" id="Layer_1" xmlns="http://www.w3.org/2000/svg" xmlns:xlink="http://www.w3.org/1999/xlink" x="0px" y="0px"
	 width="512px" height="512px" viewBox="0 0 512 512" enable-background="new 0 0 512 512" xml:space="preserve">
<g>
	<path fill="#1D1D1B" d="M181.35,397.999c0,32.789-26.587,59.382-59.383,59.382c-32.794,0-59.381-26.593-59.381-59.382
		c0-32.801,26.587-59.393,59.381-59.393C154.763,338.606,181.35,365.198,181.35,397.999z"/>
	<path fill="#1D1D1B" d="M319.811,460.183c0-141.345-113.375-256.625-253.945-259.883c-1.066-0.203-2.153-0.329-3.28-0.329
		c-0.67,0-1.308,0.12-1.961,0.197c-0.286,0-0.566-0.021-0.852-0.021v0.109c-8.104,1.347-14.301,8.341-14.301,16.829
		c0,9.45,7.665,17.121,17.115,17.121c0.374,0,0.72-0.089,1.088-0.11c122.725,2.11,221.961,102.259,222.347,225.396
		c-0.274,1.209-0.44,2.451-0.44,3.736c0,9.45,7.658,17.12,17.109,17.12c9.449,0,17.121-7.67,17.121-17.12
		c0-1.044-0.134-2.056-0.309-3.044H319.811z"/>
	<path fill="#1D1D1B" d="M62.585,31.653c-9.45,0-17.115,7.665-17.115,17.115c0,9.451,7.665,17.114,17.115,17.114
		c1.225,0,2.412-0.137,3.56-0.384c213.292,1.917,386.383,175.013,388.317,388.29c-0.253,1.165-0.396,2.362-0.396,3.593
		c0,9.45,7.669,17.12,17.12,17.12c9.45,0,17.119-7.67,17.119-17.12C488.307,222.634,297.327,31.653,62.585,31.653z"/>
</g>
</svg>
